<svg xmlns="http://www.w3.org/2000/svg" width="460" height="340" viewBox="0 0 460 340" font-family="'Segoe UI',Arial,sans-serif">
<rect width="460" height="340" fill="#0a0a0a"/><rect x="14" y="14" width="432" height="312" rx="5" fill="#111111" stroke="#252525"/>
<text x="38" y="52" fill="#FF2400" font-size="17" font-weight="700" letter-spacing="1.5">CALIBRATION COMPLETE</text>
<text x="422" y="50" fill="#555555" font-size="12" font-weight="600" text-anchor="end">Step 15/15</text>
<line x1="38" y1="66" x2="422" y2="66" stroke="#252525"/><text x="38" y="98" fill="#e8e8e8" font-size="15" font-weight="600">All set!</text><text x="38" y="124" fill="#FF2400" font-size="12">De-spike threshold</text><text x="422" y="124" fill="#FF2400" font-size="12" text-anchor="end">46</text><text x="38" y="145" fill="#FF2400" font-size="12">De-spike strength</text><text x="422" y="145" fill="#FF2400" font-size="12" text-anchor="end">100%</text><text x="38" y="166" fill="#e8e8e8" font-size="12">Inverted axes</text><text x="422" y="166" fill="#e8e8e8" font-size="12" text-anchor="end">y, rx</text><text x="38" y="187" fill="#e8e8e8" font-size="12">X+ (Right)</text><text x="422" y="187" fill="#e8e8e8" font-size="12" text-anchor="end">1.9</text><text x="38" y="208" fill="#e8e8e8" font-size="12">X- (Left)</text><text x="422" y="208" fill="#e8e8e8" font-size="12" text-anchor="end">2.1</text><text x="38" y="229" fill="#e8e8e8" font-size="12">Y+ (Forward)</text><text x="422" y="229" fill="#e8e8e8" font-size="12" text-anchor="end">1.8</text><text x="38" y="250" fill="#e8e8e8" font-size="12">Rx+ (Tilt Fwd)</text><text x="422" y="250" fill="#e8e8e8" font-size="12" text-anchor="end">2.4</text><text x="38" y="271" fill="#e8e8e8" font-size="12">Ry+ (Tilt Left)</text><text x="422" y="271" fill="#e8e8e8" font-size="12" text-anchor="end">2.2</text>
<line x1="38" y1="282" x2="422" y2="282" stroke="#252525"/><rect x="366" y="296" width="56" height="28" rx="2" fill="#FF2400" stroke="none"/><text x="394" y="315" fill="#000" font-size="11" font-weight="700" letter-spacing="1" text-anchor="middle">SAVE</text>
<rect x="283" y="296" width="73" height="28" rx="2" fill="none" stroke="#252525"/><text x="320" y="315" fill="#555555" font-size="11" font-weight="700" letter-spacing="1" text-anchor="middle">CANCEL</text></svg>