<svg xmlns="http://www.w3.org/2000/svg" width="460" height="312" viewBox="0 0 460 312" font-family="'Segoe UI',Arial,sans-serif">
<rect width="460" height="312" fill="#0a0a0a"/><rect x="14" y="14" width="432" height="284" rx="5" fill="#111111" stroke="#252525"/>
<text x="38" y="52" fill="#FF2400" font-size="17" font-weight="700" letter-spacing="1.5">DE-SPIKE · TAP</text>
<text x="422" y="50" fill="#555555" font-size="12" font-weight="600" text-anchor="end">Step 1/15</text>
<line x1="38" y1="66" x2="422" y2="66" stroke="#252525"/><rect x="38" y="80" width="384" height="92" fill="#0d0d0d" stroke="#252525"/><line x1="230.0" y1="80" x2="230.0" y2="172" stroke="#ffffff14"/><line x1="38" y1="126" x2="422" y2="126" stroke="#ffffff14"/><circle cx="230" cy="126" r="2" fill="#00ff88" opacity="0.07"/><circle cx="239" cy="127" r="2" fill="#00ff88" opacity="0.14"/><circle cx="234" cy="124" r="2" fill="#00ff88" opacity="0.21"/><circle cx="338" cy="146" r="2" fill="#00ff88" opacity="0.29"/><circle cx="158" cy="114" r="2" fill="#00ff88" opacity="0.36"/><circle cx="248" cy="124" r="2" fill="#00ff88" opacity="0.43"/><circle cx="356" cy="102" r="2" fill="#00ff88" opacity="0.50"/><circle cx="356" cy="102" r="5" fill="#00ff88"/><text x="38" y="196" fill="#e8e8e8" font-size="15" font-weight="600">Hold the puck still and tap a few times.</text><text x="38" y="222" fill="#888888" font-size="12">Keep it still and tap the top/sides. Watch the</text>
<text x="38" y="240" fill="#888888" font-size="12">dot jump on each tap — that&#x27;s the spike.</text>
<line x1="38" y1="254" x2="422" y2="254" stroke="#252525"/><rect x="366" y="268" width="56" height="28" rx="2" fill="#FF2400" stroke="none"/><text x="394" y="287" fill="#000" font-size="11" font-weight="700" letter-spacing="1" text-anchor="middle">NEXT</text>
<rect x="283" y="268" width="73" height="28" rx="2" fill="none" stroke="#252525"/><text x="320" y="287" fill="#555555" font-size="11" font-weight="700" letter-spacing="1" text-anchor="middle">CANCEL</text></svg>